<?xml version="1.0" standalone="no"?>
<!DOCTYPE svg PUBLIC "-//W3C//DTD SVG 20010904//EN"
 "http://www.w3.org/TR/2001/REC-SVG-20010904/DTD/svg10.dtd">
<svg version="1.0" xmlns="http://www.w3.org/2000/svg"
 width="716.000000pt" height="239.000000pt" viewBox="0 0 716.000000 239.000000"
 preserveAspectRatio="xMidYMid meet">
<metadata>
Created by potrace 1.16, written by Peter Selinger 2001-2019
</metadata>
<g transform="translate(0.000000,239.000000) scale(0.100000,-0.100000)"
fill="#ffffff" stroke="None" stroke-width="8">
<path d="M3593 2160 c-73 -30 -8 -237 112 -356 86 -84 197 -134 303 -134 25 0
42 -5 42 -12 0 -6 -27 -36 -60 -67 l-60 -56 1 -60 c0 -33 6 -125 13 -205 7
-80 13 -233 12 -340 -1 -242 -2 -244 -143 -394 -109 -117 -122 -145 -85 -179
25 -23 64 -21 95 4 78 60 288 37 469 -52 37 -18 53 -21 72 -13 40 15 304 272
356 346 58 82 104 204 121 318 18 129 7 352 -25 474 -60 230 -185 404 -343
478 -66 32 -71 32 -273 40 -113 4 -234 12 -270 18 -117 20 -205 71 -240 140
-18 36 -46 61 -67 59 -4 0 -18 -4 -30 -9z m60 -65 c16 -48 45 -83 94 -112 86
-50 159 -64 398 -73 294 -12 334 -26 452 -155 145 -157 222 -403 210 -664 -9
-192 -62 -347 -161 -473 -46 -58 -278 -271 -301 -276 -7 -2 -40 10 -73 27
-135 68 -338 93 -428 52 -23 -10 -45 -24 -48 -30 -9 -15 -46 -14 -46 0 0 7 49
63 110 125 143 148 145 155 144 419 -1 105 -2 204 -3 220 -2 58 -22 290 -27
318 -5 23 4 37 58 93 35 37 82 79 106 96 23 16 42 33 42 38 0 6 -30 10 -67 10
-96 1 -210 23 -275 54 -75 35 -151 118 -193 209 -36 79 -50 131 -40 147 12 20
38 6 48 -25z M4217 1661 c-45 -50 -52 -84 -43 -235 7 -117 15 -146 42 -146 11
0 12 29 7 158 -5 151 -5 158 16 185 13 15 27 27 32 27 5 0 9 -74 9 -175 0
-165 -1 -175 -22 -194 -17 -17 -19 -23 -8 -36 17 -21 47 -19 60 4 6 12 10 106
10 235 l0 216 -34 0 c-27 0 -41 -8 -69 -39z M4351 1548 c1 -176 11 -304 25
-318 9 -9 17 -9 33 -1 25 14 27 28 6 51 -22 24 -35 310 -13 310 17 0 81 -104
104 -170 9 -25 20 -54 24 -65 14 -38 30 -115 30 -148 0 -37 15 -57 42 -57 22
0 23 17 3 112 -34 161 -93 287 -170 365 -82 81 -85 78 -84 -79z M4190 1206 c0
-50 10 -62 40 -46 27 14 25 41 -3 68 -33 31 -37 28 -37 -22z M4428 1205 c-7
-15 -8 -29 -2 -34 16 -15 49 -21 64 -11 13 8 13 13 0 37 -21 38 -47 41 -62 8z
M4583 1118 c-6 -8 -7 -56 -3 -118 8 -147 -10 -265 -55 -357 -20 -40 -42 -73
-50 -73 -8 0 -31 8 -51 18 l-37 17 7 195 c4 107 11 199 16 204 16 16 12 43 -7
50 -36 14 -41 -12 -48 -250 l-7 -231 57 -27 c32 -14 65 -26 75 -26 26 0 98
105 121 179 28 85 41 407 18 422 -19 12 -25 11 -36 -3z M4197 1114 c-10 -10
-9 -56 2 -73 8 -13 12 -13 26 -1 16 13 39 59 33 66 -8 8 -55 14 -61 8z M4431
1111 c-20 -13 -6 -61 18 -61 24 0 55 35 48 55 -7 16 -44 20 -66 6z M4256 1033
c-4 -10 -1 -20 9 -25 13 -8 15 -37 15 -190 l0 -180 -32 7 c-18 3 -50 9 -70 12
-21 3 -38 10 -38 15 0 5 13 26 30 46 46 58 69 121 76 210 6 72 5 82 -9 82 -23
0 -34 -26 -40 -96 -7 -86 -70 -197 -144 -257 -40 -32 -30 -46 30 -40 30 3 84
-2 127 -11 122 -26 110 -48 110 202 0 156 -3 221 -12 230 -17 17 -45 15 -52
-5z M835 1889 c-258 -230 -354 -377 -404 -625 -14 -68 -17 -102 -10 -110 7 -8
7 -19 1 -31 -11 -21 2 -152 23 -236 64 -251 240 -468 460 -568 36 -16 76 -29
89 -29 27 0 79 39 235 173 117 102 174 169 207 244 26 59 47 171 39 205 l-6
23 199 -3 198 -4 30 25 c16 14 44 52 63 86 19 33 38 61 43 61 4 0 8 -21 8 -47
0 -67 33 -216 64 -292 81 -198 249 -375 426 -448 30 -12 67 -23 82 -23 35 0
154 90 286 215 55 52 104 95 110 95 6 0 27 -22 47 -50 76 -103 273 -260 328
-260 29 0 237 188 334 301 136 161 201 342 202 563 1 217 -40 366 -144 521
-88 132 -293 325 -345 325 -26 0 -97 -59 -241 -201 -188 -184 -274 -328 -315
-529 -19 -92 -16 -120 14 -120 15 0 20 13 29 78 6 42 26 117 43 165 51 140
111 222 293 400 88 86 166 157 173 157 21 0 156 -113 220 -184 306 -339 306
-856 0 -1184 -17 -19 -84 -83 -148 -144 l-117 -110 -79 55 c-87 62 -218 194
-254 256 -12 22 -26 41 -30 41 -3 0 -37 -32 -75 -71 -100 -104 -306 -269 -336
-269 -42 0 -179 76 -244 135 -159 143 -250 330 -275 561 -13 124 4 243 51 374
59 160 167 297 390 489 l73 64 27 -17 c73 -48 177 -90 233 -94 73 -6 104 2
134 35 22 24 26 25 40 12 13 -14 10 -23 -29 -81 -25 -36 -80 -132 -123 -212
-55 -102 -84 -146 -96 -146 -29 0 -21 34 27 116 25 41 45 79 45 84 0 5 -28 8
-62 8 -44 0 -84 8 -133 27 -115 43 -109 43 -102 5 4 -18 7 -128 7 -244 0 -116
4 -217 9 -225 11 -16 47 -6 55 16 4 9 0 23 -8 32 -11 12 -15 58 -18 199 -3
197 -4 196 50 168 15 -8 49 -17 75 -21 26 -4 47 -10 47 -14 0 -3 -14 -34 -32
-68 -31 -59 -32 -64 -18 -90 19 -33 63 -52 88 -37 9 6 36 47 60 90 24 43 81
143 128 221 46 78 84 150 84 160 0 24 -40 63 -64 63 -10 0 -31 -11 -48 -25
-24 -20 -40 -25 -89 -25 -64 0 -115 17 -201 67 -80 47 -101 44 -178 -23 -295
-253 -412 -423 -457 -663 l-16 -86 -192 4 -192 3 -34 -30 c-19 -16 -49 -57
-68 -91 -19 -33 -40 -61 -47 -61 -6 0 -14 14 -18 31 -5 28 -20 66 -49 127 -20
43 -128 160 -162 176 -45 22 -54 16 -145 -81 -43 -47 -74 -73 -77 -65 -12 29
-63 5 -63 -30 0 -15 9 -18 54 -18 51 0 55 2 103 52 27 29 57 65 67 81 10 15
24 27 30 27 15 0 94 -82 135 -139 42 -60 81 -186 81 -264 0 -129 -42 -228
-139 -331 -85 -90 -277 -246 -302 -246 -41 0 -181 84 -256 154 -158 147 -241
321 -262 549 -23 235 58 462 232 656 52 58 276 261 288 261 4 0 32 -15 62 -34
134 -80 305 -101 351 -43 25 32 56 36 56 8 0 -11 -19 -47 -42 -81 -24 -34 -79
-128 -123 -208 -77 -141 -107 -175 -121 -139 -3 9 19 56 50 108 31 50 56 94
56 97 0 3 -21 2 -46 -2 -61 -8 -155 15 -245 59 -39 19 -75 35 -80 35 -5 0 -9
-112 -9 -253 0 -273 4 -297 48 -283 25 8 29 38 7 56 -12 10 -15 47 -15 211 0
131 4 199 10 199 6 0 21 -6 33 -14 33 -22 142 -56 177 -56 38 0 38 -12 0 -75
-45 -76 -36 -120 27 -139 33 -10 61 24 160 194 47 80 100 170 119 202 40 66
43 96 11 126 -30 29 -52 28 -89 -3 -57 -48 -183 -28 -325 50 -35 19 -70 35
-78 35 -8 0 -76 -54 -150 -121z m1140 -739 c4 -6 -6 -25 -22 -44 -15 -18 -42
-53 -60 -79 l-32 -46 -168 -3 c-92 -2 -172 0 -177 4 -4 3 19 43 53 87 l62 80
152 4 c83 1 160 4 169 5 9 1 20 -3 23 -8z M6173 1886 c-67 -62 -139 -134 -160
-159 -138 -166 -166 -321 -89 -484 25 -53 42 -76 61 -83 62 -24 71 -6 24 48
-92 105 -101 273 -23 412 24 41 271 293 320 327 20 13 26 11 66 -16 76 -51
137 -73 220 -79 77 -4 78 -4 107 27 60 64 91 26 38 -46 -19 -27 -68 -106 -109
-178 -42 -71 -90 -154 -107 -183 -17 -29 -31 -59 -31 -66 0 -7 17 -25 38 -39
58 -41 137 -126 175 -189 44 -73 61 -156 54 -256 -10 -151 -68 -244 -271 -437
-81 -77 -151 -141 -155 -143 -5 -2 -35 14 -67 34 -140 90 -291 144 -400 144
-76 0 -109 -11 -151 -52 -31 -30 -53 -31 -53 -2 0 9 33 53 73 99 39 45 124
148 187 228 85 108 121 146 138 146 39 1 25 -27 -63 -129 -47 -54 -85 -103
-85 -109 0 -6 18 -8 48 -4 45 5 73 0 217 -41 35 -10 133 -59 243 -122 l33 -19
48 52 c69 73 94 130 99 224 3 59 0 93 -16 146 -36 119 -128 221 -164 185 -8
-8 4 -27 40 -67 66 -72 92 -141 92 -243 0 -56 -6 -89 -21 -122 -26 -58 -66
-110 -85 -110 -8 0 -54 23 -102 50 -48 28 -96 50 -107 50 -10 0 -26 6 -34 14
-18 15 -133 46 -174 46 -15 0 -27 5 -27 10 0 6 32 44 70 86 39 41 70 81 70 88
0 8 -8 24 -19 37 -17 21 -21 22 -46 11 -23 -11 -30 -11 -36 0 -11 18 -32 -3
-182 -187 -72 -88 -153 -187 -180 -220 -69 -84 -75 -99 -50 -133 27 -37 68
-40 102 -9 14 14 36 30 48 36 32 16 151 13 214 -5 64 -19 212 -92 274 -134 24
-16 53 -30 64 -30 23 0 255 215 338 311 136 160 173 333 113 522 -26 81 -85
164 -169 237 -33 30 -61 59 -61 65 0 6 37 72 81 146 202 332 194 315 155 353
-32 33 -60 33 -98 1 -55 -47 -169 -29 -288 44 -79 49 -88 45 -227 -83z M5050
1780 l-214 -210 17 -117 c28 -195 40 -379 34 -548 -7 -219 -12 -234 -137 -374
-81 -91 -99 -117 -94 -135 17 -56 64 -71 112 -37 102 71 344 55 515 -35 65
-33 70 -34 92 -20 28 18 276 288 313 341 21 29 24 40 16 63 -5 15 -22 33 -37
40 -36 18 -58 4 -137 -83 -34 -38 -68 -71 -75 -73 -8 -2 -32 6 -54 17 -53 28
-171 58 -253 67 -38 3 -68 10 -68 13 0 4 13 25 30 47 42 55 70 151 70 240 0
85 -3 83 95 59 81 -20 165 -19 194 1 12 9 49 50 82 91 45 57 59 82 59 107 0
47 -19 59 -82 53 -29 -2 -102 2 -163 11 -109 15 -110 14 -152 -8 -24 -13 -45
-21 -47 -19 -9 10 -37 351 -31 378 3 16 14 36 23 44 16 14 24 13 87 -19 39
-19 99 -40 133 -47 34 -6 62 -17 62 -23 0 -7 -11 -32 -25 -55 -14 -24 -25 -54
-25 -66 0 -33 39 -64 75 -61 35 4 61 39 157 219 35 65 68 119 75 119 6 0 15
-9 18 -20 4 -11 18 -34 32 -51 l26 -30 -47 -48 c-49 -50 -56 -73 -30 -109 11
-16 25 -22 50 -22 31 0 45 9 98 63 71 71 115 153 123 232 7 66 -9 113 -53 159
-29 30 -42 36 -76 36 -24 0 -55 -9 -74 -21 -26 -16 -38 -18 -53 -10 -28 16
-36 14 -70 -15 -56 -47 -163 -34 -279 35 -29 17 -63 31 -75 31 -15 0 -90 -67
-237 -210z m285 139 c61 -41 152 -69 226 -69 51 0 63 4 93 31 33 28 56 32 56
8 0 -6 -25 -52 -56 -102 -31 -51 -84 -144 -118 -207 -37 -70 -68 -116 -79
-118 -35 -7 -28 28 22 112 28 47 51 89 51 93 0 4 -40 8 -88 8 -84 0 -93 2
-174 43 -47 23 -93 42 -101 42 -21 0 -75 -76 -83 -115 -3 -17 1 -92 10 -166 8
-74 18 -176 22 -226 4 -51 10 -93 15 -93 4 0 19 15 33 33 14 19 41 42 60 52
32 17 42 18 113 7 101 -16 138 -18 191 -8 58 11 55 -2 -22 -94 -75 -90 -83
-92 -248 -60 -61 12 -114 18 -118 13 -5 -4 -10 -60 -12 -123 -3 -102 -6 -122
-31 -172 -16 -32 -51 -82 -78 -112 -27 -30 -49 -58 -49 -63 0 -5 41 -7 93 -5
109 5 233 -21 334 -69 l65 -31 23 22 c13 12 50 53 82 91 57 67 88 84 100 54 3
-10 -14 -36 -48 -73 -30 -31 -102 -108 -161 -170 l-106 -113 -54 30 c-166 92
-471 110 -543 31 -22 -24 -55 -26 -55 -4 0 9 40 58 88 109 104 108 127 152
143 271 16 125 -3 507 -36 694 l-13 75 201 203 c111 111 203 202 204 202 1 0
23 -14 48 -31z m556 -25 c21 -23 24 -35 24 -107 0 -71 -4 -88 -27 -127 -30
-52 -120 -140 -142 -140 -32 0 -26 23 18 70 65 70 68 92 17 139 -37 34 -41 43
-41 84 0 94 92 144 151 81z M806 1734 c-93 -110 -139 -220 -157 -369 -14 -118
-3 -210 26 -210 19 0 20 7 21 120 1 137 17 213 69 323 54 115 61 102 57 -120
-2 -106 -8 -197 -13 -202 -15 -16 -10 -43 8 -50 38 -15 42 9 45 287 2 180 0
267 -7 267 -6 0 -28 -21 -49 -46z M2386 1729 c-56 -62 -110 -170 -130 -259
-20 -89 -29 -211 -21 -271 6 -44 10 -50 29 -47 20 3 21 8 22 118 1 173 30 277
111 405 16 25 36 45 46 45 16 0 17 -17 17 -215 0 -182 -2 -217 -15 -221 -22
-9 -18 -42 7 -55 44 -23 48 2 48 276 l0 252 -25 11 c-38 17 -39 17 -89 -39z
M6142 1728 c-74 -99 -85 -197 -33 -302 33 -68 73 -112 91 -101 16 10 4 49 -30
96 -41 57 -55 130 -36 194 9 28 28 65 43 84 l29 33 49 -31 c65 -41 147 -71
195 -71 21 0 41 -4 45 -9 3 -6 -30 -68 -74 -140 -118 -193 -123 -199 -151
-166 -32 39 -50 -2 -20 -45 33 -46 59 -40 109 27 23 31 67 102 98 158 31 55
71 124 90 153 18 29 33 56 33 61 0 5 -26 7 -59 4 -70 -7 -132 11 -239 68 -41
21 -80 39 -87 39 -8 0 -32 -24 -53 -52z M3210 1723 c-48 -57 -103 -164 -126
-248 -9 -34 -19 -117 -21 -192 l-5 -133 26 0 26 0 0 113 c0 134 22 233 74 334
50 97 71 121 93 107 16 -10 18 -31 21 -193 2 -152 0 -188 -14 -216 -20 -42
-13 -65 20 -65 16 0 26 7 30 23 3 12 6 124 6 249 l0 226 -36 21 c-19 12 -39
21 -44 21 -5 0 -27 -21 -50 -47z M3377 1463 c1 -124 7 -231 12 -236 13 -13 48
0 56 21 3 9 0 21 -8 27 -10 7 -15 49 -20 163 -3 83 -2 152 3 152 15 0 66 -73
108 -151 22 -44 49 -117 62 -170 12 -52 24 -100 26 -106 4 -14 40 -18 48 -5 8
13 -39 191 -68 256 -15 32 -44 84 -66 116 -41 60 -133 160 -147 160 -4 0 -7
-102 -6 -227z M6240 1556 c0 -58 11 -136 20 -136 15 0 39 71 34 102 -14 83
-54 108 -54 34z M1036 1354 c-4 -9 -4 -19 -1 -22 6 -6 35 18 35 29 0 16 -28
10 -34 -7z M2655 1340 c-10 -11 -15 -23 -12 -27 8 -7 47 25 47 39 0 14 -16 9
-35 -12z M3190 1346 c0 -16 28 -42 36 -33 8 7 -14 47 -26 47 -6 0 -10 -6 -10
-14z M2712 1297 c-44 -44 -53 -67 -27 -67 8 0 15 -7 15 -15 0 -20 -17 -19 -28
1 -13 23 -58 11 -67 -17 -9 -26 6 -41 36 -40 105 5 140 9 146 14 3 4 -6 20
-20 35 -30 31 -33 55 -12 92 31 55 12 54 -43 -3z M742 1210 c-18 -29 -15 -50
7 -50 49 0 65 25 35 54 -20 21 -27 20 -42 -4z M2361 1198 c-9 -24 -8 -34 1
-40 41 -26 90 26 56 60 -22 22 -46 13 -57 -20z M3206 1208 c-31 -43 -12 -67
37 -49 29 11 35 39 15 59 -18 18 -35 15 -52 -10z M3451 1216 c-19 -23 -9 -48
22 -59 41 -13 57 5 37 41 -18 32 -42 39 -59 18z M5761 1196 c-30 -6 -56 -17
-59 -24 -3 -9 21 -12 97 -12 106 0 123 8 71 35 -33 17 -35 17 -109 1z M6360
1190 c-15 -28 -5 -40 36 -40 39 0 43 11 14 40 -25 25 -37 25 -50 0z M655 1121
c-7 -13 24 -149 36 -156 5 -4 9 -15 9 -26 0 -42 127 -259 151 -259 6 0 8 67 7
181 -3 160 -5 183 -20 193 -14 8 -21 7 -34 -6 -15 -15 -16 -19 -2 -40 21 -32
32 -198 14 -198 -12 0 -76 126 -76 150 0 6 -4 10 -9 10 -4 0 -12 28 -15 62 -4
34 -12 70 -17 80 -10 19 -34 24 -44 9z M2245 1121 c-7 -12 21 -143 40 -186 7
-16 18 -45 25 -63 28 -71 155 -242 181 -242 5 0 9 89 9 198 0 217 -6 246 -48
223 -25 -14 -27 -28 -7 -55 18 -23 22 -256 5 -256 -13 0 -57 70 -88 140 -13
30 -29 58 -34 61 -6 4 -8 11 -4 17 6 10 -23 138 -37 160 -10 14 -33 16 -42 3z
M2831 1116 c-16 -20 10 -194 45 -289 14 -40 28 -79 30 -88 8 -22 -126 -145
-171 -158 -38 -10 -111 5 -140 29 -23 19 -22 366 1 392 14 14 14 20 4 33 -19
23 -49 19 -54 -7 -3 -13 -7 -116 -9 -230 l-5 -206 58 -31 c42 -23 71 -31 108
-31 60 0 97 23 195 118 78 76 76 66 27 205 -21 60 -33 117 -38 180 -5 72 -10
92 -23 95 -9 1 -21 -4 -28 -12z M3070 1102 c0 -31 37 -171 49 -187 5 -5 11
-21 14 -35 14 -57 164 -260 193 -260 11 0 14 37 14 203 0 220 -5 246 -48 233
-22 -7 -32 -51 -13 -58 15 -5 27 -278 13 -278 -13 0 -44 47 -91 135 -17 33
-35 67 -40 75 -5 8 -17 51 -27 95 -9 44 -21 86 -27 93 -17 22 -37 14 -37 -16z
M3627 1124 c-4 -4 -7 -60 -7 -124 0 -170 -40 -309 -115 -399 -31 -36 -32 -36
-64 -12 l-25 19 3 189 c1 103 7 192 12 198 16 16 10 44 -12 56 -12 6 -25 7
-29 2 -4 -4 -11 -112 -15 -239 l-7 -232 45 -31 c65 -44 80 -41 131 29 94 127
128 245 124 426 -3 98 -6 119 -18 122 -9 1 -19 0 -23 -4z M6327 1112 c-21 -23
-22 -58 -1 -66 22 -8 20 -10 45 30 18 30 19 38 8 45 -21 13 -34 11 -52 -9z
M730 1107 c0 -16 29 -57 40 -57 18 0 32 40 19 56 -14 17 -59 19 -59 1z M954
1109 c-3 -6 1 -18 9 -27 13 -13 19 -13 31 -2 9 7 16 19 16 26 0 17 -46 19 -56
3z M1046 1081 c-25 -25 -37 -45 -33 -55 10 -24 42 -19 55 9 16 35 35 31 71
-14 59 -75 76 -126 76 -231 0 -82 -4 -103 -27 -152 -36 -78 -62 -90 -126 -59
-26 13 -64 36 -84 53 l-38 30 0 108 0 109 40 46 c45 52 46 57 25 75 -13 11
-22 5 -58 -36 l-42 -48 -6 -135 -5 -136 40 -38 c49 -45 149 -97 187 -97 20 0
38 12 68 46 56 64 76 128 75 239 -1 122 -27 189 -103 267 -32 32 -61 58 -67
58 -5 0 -27 -18 -48 -39z M2360 1103 c1 -27 26 -55 47 -51 22 4 30 47 11 59
-24 16 -58 10 -58 -8z M2618 1114 c-21 -6 -24 -34 -6 -52 18 -18 45 -14 62 10
15 21 16 21 35 4 19 -17 21 -17 50 0 42 25 39 34 -11 34 -24 0 -59 2 -78 4
-19 3 -43 2 -52 0z M3190 1110 c0 -24 34 -60 56 -60 18 0 24 5 24 23 0 13 -5
28 -12 35 -15 15 -68 16 -68 2z M3457 1113 c-13 -3 -17 -12 -15 -31 6 -52 77
-33 78 21 0 17 -22 21 -63 10z M5728 1113 c-32 -8 -19 -20 35 -31 104 -23 169
-25 220 -7 48 16 49 16 82 -9 36 -28 65 -26 65 4 0 39 -25 44 -209 46 -97 0
-184 -1 -193 -3z M906 1055 c-9 -24 -7 -65 2 -65 5 0 17 9 28 21 13 15 16 24
8 36 -15 24 -30 27 -38 8z M6147 1043 c-12 -12 -7 -40 9 -54 13 -10 15 -30 12
-107 -2 -64 1 -96 8 -99 15 -5 25 236 11 255 -10 13 -30 16 -40 5z M2670 1030
c0 -13 70 -90 81 -90 25 0 -9 80 -38 92 -26 10 -43 9 -43 -2z M6252 1023 c-4
-10 -8 -76 -8 -148 1 -108 3 -130 16 -130 20 0 49 62 50 107 0 47 11 53 66 38
25 -7 48 -10 52 -6 9 10 -73 86 -93 86 -8 0 -15 -4 -15 -10 0 -13 -27 -13 -35
1 -4 6 1 16 10 23 9 7 16 21 13 32 -4 25 -44 31 -56 7z M3522 1014 c1 -9 9
-19 16 -22 9 -3 13 2 10 14 -1 9 -9 19 -16 22 -9 3 -13 -2 -10 -14z M3480 952
c0 -28 37 -59 52 -44 9 9 6 18 -12 37 -28 30 -40 32 -40 7z M2640 949 c0 -16
56 -69 74 -69 24 0 19 13 -17 48 -33 32 -57 41 -57 21z"/>
</g>
</svg>
